<?xml version="1.0" encoding="UTF-8" standalone="no"?>
<!-- Created with Inkscape (http://www.inkscape.org/) -->

<svg
   xmlns:dc="http://purl.org/dc/elements/1.1/"
   xmlns:cc="http://creativecommons.org/ns#"
   xmlns:rdf="http://www.w3.org/1999/02/22-rdf-syntax-ns#"
   xmlns:svg="http://www.w3.org/2000/svg"
   xmlns="http://www.w3.org/2000/svg"
   xmlns:xlink="http://www.w3.org/1999/xlink"
   xmlns:sodipodi="http://sodipodi.sourceforge.net/DTD/sodipodi-0.dtd"
   xmlns:inkscape="http://www.inkscape.org/namespaces/inkscape"
   width="360"
   height="110"
   viewBox="0 0 95.249998 29.104167"
   version="1.1"
   id="svg4115"
   inkscape:version="0.92.3 (2405546, 2018-03-11)">
  <defs
     id="defs4109">
    <clipPath
       id="SVGID_2_">
      <use
         height="100%"
         width="100%"
         y="0"
         x="0"
         style="overflow:visible"
         xlink:href="#SVGID_1_"
         overflow="visible"
         id="use3809" />
    </clipPath>
    <polygon
       id="SVGID_1_"
       points="341.318,361.38 401.436,421.501 341.318,481.622 281.193,421.501 " />
    <clipPath
       id="SVGID_2_-7">
      <use
         height="100%"
         width="100%"
         y="0"
         x="0"
         style="overflow:visible"
         xlink:href="#SVGID_1_-3"
         overflow="visible"
         id="use3809-3" />
    </clipPath>
    <polygon
       id="SVGID_1_-3"
       points="341.318,361.38 401.436,421.501 341.318,481.622 281.193,421.501 " />
  </defs>
  <sodipodi:namedview
     id="base"
     pagecolor="#ffffff"
     bordercolor="#666666"
     borderopacity="1.0"
     inkscape:pageopacity="0.0"
     inkscape:pageshadow="2"
     inkscape:zoom="2.8284271"
     inkscape:cx="292.08955"
     inkscape:cy="59.060792"
     inkscape:document-units="mm"
     inkscape:current-layer="layer1"
     showgrid="false"
     units="px"
     inkscape:window-width="1920"
     inkscape:window-height="1057"
     inkscape:window-x="1912"
     inkscape:window-y="-8"
     inkscape:window-maximized="1" />
  <metadata
     id="metadata4112">
    <rdf:RDF>
      <cc:Work
         rdf:about="">
        <dc:format>image/svg+xml</dc:format>
        <dc:type
           rdf:resource="http://purl.org/dc/dcmitype/StillImage" />
        <dc:title></dc:title>
      </cc:Work>
    </rdf:RDF>
  </metadata>
  <g
     inkscape:label="Layer 1"
     inkscape:groupmode="layer"
     id="layer1"
     transform="translate(0,-267.89582)">
    <polygon
       transform="matrix(0.16660913,0,0,0.16660913,-44.949393,211.99406)"
       style="fill:#332d71"
       points="401.353,421.501 341.235,481.622 281.11,421.501 341.235,361.38 "
       id="polygon3802" />
    <path
       inkscape:connector-curvature="0"
       style="fill:#67686b;stroke-width:0.16660912"
       d="M 11.902976,293.33431 0.78848016,282.21998 11.902976,271.10565 23.017304,282.21998 Z M 0.90627256,282.21998 11.902976,293.21651 22.899512,282.21998 11.902976,271.22345 Z"
       id="path3804" />
    <g
       transform="matrix(0.16660913,0,0,0.16660913,-44.949393,211.99406)"
       id="g3814">
      <defs
         id="defs3807">
        <polygon
           id="polygon4264"
           points="401.436,421.501 341.318,481.622 281.193,421.501 341.318,361.38 " />
      </defs>
      <clipPath
         id="clipPath3961">
        <use
           height="100%"
           width="100%"
           y="0"
           x="0"
           style="overflow:visible"
           xlink:href="#SVGID_1_-3"
           overflow="visible"
           id="use3959" />
      </clipPath>
      <path
         style="fill:#ffffff"
         inkscape:connector-curvature="0"
         clip-path="url(#SVGID_2_-7)"
         d="m 387.922,419.163 v -2.216 h -34.576 v -46.426 h -2.461 v 54.839 c -1.045,-1.983 -2.408,-3.663 -3.974,-4.802 -4.021,-2.955 -7.964,-3.611 -15.187,-3.611 h -14.119 v 14.167 c -15.938,-0.17 -28.732,-12.504 -28.732,-29.216 0,-16.83 12.972,-29.227 29.063,-29.227 13.463,0.083 21.426,9.195 23.725,12.397 h 2.874 c -4.434,-6.898 -13.63,-14.531 -26.599,-14.613 -17.404,0 -31.522,13.217 -31.522,31.442 0,18.109 13.94,31.266 31.191,31.433 v 44.366 h 2.461 v -26.27 h 11.658 c 7.058,0 11.165,-0.658 15.187,-3.614 3.612,-2.626 6.158,-8.126 6.158,-13.628 0,-0.977 -0.084,-1.953 -0.236,-2.914 h 16.128 v 46.426 h 2.464 v -46.426 -2.217 -9.891 h 16.497 z m -56.116,0 c 3.911,0 6.712,0.265 9.034,0.957 -2.586,3.183 -9.447,10.116 -20.773,10.912 v -11.869 z m 13.793,26.679 c -3.449,2.548 -6.977,3.368 -13.793,3.368 h -11.739 v -15.948 c 10.511,-0.683 18.712,-6.32 23.07,-12.243 0.85,0.418 1.656,0.914 2.462,1.508 2.954,2.135 5.009,6.98 5.009,11.741 -10e-4,4.597 -2.055,9.44 -5.009,11.574 z m 7.747,-16.788 v -9.891 h 15.615 v 9.891 z"
         id="path3812" />
    </g>
    <g
       transform="matrix(0.16660913,0,0,0.16660913,-44.949393,211.99406)"
       id="g3846">
      <path
         style="fill:#67686b"
         inkscape:connector-curvature="0"
         d="m 459.878,406.583 h 0.676 v 7.453 h -0.676 c -0.186,-0.85 -0.525,-1.597 -1.013,-2.247 -1.87,2.115 -4.262,3.17 -7.167,3.17 -3.076,0 -5.588,-0.975 -7.538,-2.919 -1.95,-1.944 -2.925,-4.516 -2.925,-7.715 0,-2.098 0.447,-4.077 1.349,-5.93 0.897,-1.859 2.152,-3.233 3.763,-4.134 1.611,-0.901 3.379,-1.352 5.303,-1.352 1.592,0 3.031,0.331 4.322,0.98 1.291,0.656 2.255,1.38 2.894,2.173 0.444,-0.89 0.716,-1.808 0.81,-2.76 h 0.689 l 0.189,8.062 h -0.676 c -0.471,-2.868 -1.429,-4.858 -2.877,-5.976 -1.448,-1.118 -3.082,-1.677 -4.9,-1.677 -2.227,0 -3.998,0.901 -5.309,2.708 -1.312,1.813 -1.967,4.396 -1.967,7.766 0,3.188 0.715,5.628 2.146,7.327 1.434,1.699 3.215,2.549 5.348,2.549 1.141,0 2.304,-0.274 3.496,-0.833 1.191,-0.553 2.135,-1.488 2.83,-2.811 0.695,-1.323 1.107,-2.596 1.233,-3.834 z"
         id="path3816" />
      <path
         style="fill:#67686b"
         inkscape:connector-curvature="0"
         d="m 485.817,407.952 h 0.754 l -0.465,6.614 h -17.6 v -0.719 h 0.439 c 1.055,0 1.736,-0.142 2.044,-0.427 0.308,-0.28 0.505,-0.639 0.591,-1.072 0.082,-0.433 0.125,-1.54 0.125,-3.318 v -10.423 c 0,-1.625 -0.046,-2.691 -0.135,-3.199 -0.088,-0.513 -0.293,-0.873 -0.612,-1.078 -0.319,-0.2 -0.989,-0.302 -2.013,-0.302 v -0.724 h 15.207 l 0.487,5.303 h -0.722 c -0.333,-1.488 -0.744,-2.538 -1.231,-3.159 -0.484,-0.627 -1.063,-1.015 -1.733,-1.18 -0.667,-0.16 -1.744,-0.239 -3.227,-0.239 h -2.948 v 8.917 h 2.264 c 1.038,0 1.762,-0.085 2.179,-0.262 0.412,-0.183 0.687,-0.451 0.814,-0.81 0.131,-0.359 0.199,-1.066 0.199,-2.11 h 0.719 v 7.275 h -0.719 c 0,-1.18 -0.1,-1.973 -0.299,-2.372 -0.199,-0.405 -0.49,-0.667 -0.873,-0.787 -0.385,-0.12 -1.031,-0.182 -1.943,-0.182 h -2.341 v 5.035 c 0,2.52 0.159,4.002 0.484,4.447 0.322,0.445 1.194,0.667 2.614,0.667 h 1.582 c 1.115,0 2.036,-0.142 2.754,-0.427 0.722,-0.285 1.409,-0.878 2.062,-1.768 0.652,-0.895 1.168,-2.126 1.543,-3.7 z"
         id="path3818" />
      <path
         style="fill:#67686b"
         inkscape:connector-curvature="0"
         d="m 512.146,415.051 -15.038,-19.928 v 14.756 c 0,1.22 0.059,2.03 0.179,2.412 0.12,0.388 0.462,0.747 1.026,1.066 0.564,0.325 1.414,0.49 2.543,0.49 v 0.719 h -7.937 v -0.719 c 1.015,-0.074 1.79,-0.262 2.32,-0.559 0.536,-0.296 0.85,-0.622 0.949,-0.963 0.101,-0.348 0.151,-1.164 0.151,-2.446 v -11.272 c 0,-1.631 -0.077,-2.726 -0.229,-3.279 -0.15,-0.553 -0.393,-0.912 -0.721,-1.066 -0.331,-0.16 -1.063,-0.234 -2.204,-0.234 v -0.724 h 6.272 l 12.59,16.638 v -12.715 c 0,-0.941 -0.095,-1.603 -0.289,-1.979 -0.193,-0.376 -0.59,-0.673 -1.183,-0.896 -0.599,-0.216 -1.313,-0.325 -2.149,-0.325 v -0.724 h 7.715 v 0.724 c -0.898,0.068 -1.608,0.245 -2.124,0.513 -0.519,0.273 -0.847,0.599 -0.989,0.98 -0.14,0.382 -0.211,1.026 -0.211,1.938 v 17.59 h -0.671 z"
         id="path3820" />
      <path
         style="fill:#67686b"
         inkscape:connector-curvature="0"
         d="m 522.812,398.418 h -0.721 l 0.107,-5.114 h 20.652 l 0.108,5.114 h -0.673 c -0.239,-1.402 -0.57,-2.412 -0.986,-3.033 -0.419,-0.627 -0.869,-1.003 -1.352,-1.146 -0.479,-0.143 -1.3,-0.211 -2.46,-0.211 h -3.419 v 15.001 c 0,1.665 0.041,2.754 0.117,3.278 0.08,0.525 0.291,0.913 0.637,1.163 0.344,0.251 0.991,0.376 1.943,0.376 h 1.035 v 0.719 h -10.613 v -0.719 h 1.094 c 0.912,0 1.54,-0.12 1.891,-0.348 0.351,-0.228 0.576,-0.587 0.676,-1.072 0.1,-0.485 0.148,-1.62 0.148,-3.398 v -15.001 h -3.154 c -1.367,0 -2.285,0.062 -2.759,0.194 -0.468,0.131 -0.909,0.524 -1.323,1.186 -0.412,0.657 -0.729,1.66 -0.948,3.011 z"
         id="path3822" />
      <path
         style="fill:#67686b"
         inkscape:connector-curvature="0"
         d="m 571.848,414.566 h -5.725 c -1.015,-0.713 -2.565,-2.572 -4.659,-5.583 -0.666,-0.963 -1.362,-1.881 -2.084,-2.765 -0.721,-0.884 -1.217,-1.425 -1.49,-1.614 -0.271,-0.194 -0.693,-0.291 -1.27,-0.291 h -0.846 v 4.715 c 0,1.676 0.039,2.771 0.117,3.29 0.079,0.513 0.287,0.901 0.627,1.151 0.339,0.251 0.992,0.376 1.953,0.376 h 1.02 v 0.719 h -10.178 v -0.719 h 0.69 c 0.909,0 1.54,-0.12 1.89,-0.348 0.352,-0.228 0.573,-0.587 0.664,-1.072 0.098,-0.485 0.143,-1.62 0.143,-3.398 v -10.423 c 0,-1.693 -0.045,-2.788 -0.143,-3.279 -0.091,-0.49 -0.302,-0.833 -0.627,-1.021 -0.322,-0.188 -1.023,-0.279 -2.098,-0.279 h -0.362 v -0.724 l 3.042,-0.154 c 2.027,-0.097 3.638,-0.143 4.829,-0.143 2.027,0 3.678,0.188 4.946,0.564 1.271,0.376 2.299,0.992 3.082,1.848 0.784,0.861 1.175,1.882 1.175,3.073 0,1.392 -0.511,2.577 -1.534,3.563 -1.025,0.981 -2.531,1.591 -4.516,1.831 0.887,0.428 2.32,1.979 4.297,4.641 1.607,2.167 2.873,3.581 3.794,4.254 0.918,0.667 2.007,1.021 3.262,1.066 v 0.722 z M 555.774,403.59 c 0.783,-0.023 1.594,-0.052 2.429,-0.091 0.838,-0.045 1.565,-0.16 2.181,-0.348 0.615,-0.188 1.115,-0.461 1.497,-0.821 0.382,-0.36 0.685,-0.833 0.901,-1.42 0.222,-0.587 0.33,-1.306 0.33,-2.167 0,-1.494 -0.373,-2.691 -1.121,-3.586 -0.746,-0.901 -2.374,-1.352 -4.883,-1.352 -0.388,0 -0.832,0.023 -1.334,0.063 z"
         id="path3824" />
      <path
         style="fill:#67686b"
         inkscape:connector-curvature="0"
         d="m 590.606,406.726 h -8.082 l -0.559,1.352 c -0.816,1.95 -1.224,3.227 -1.224,3.826 0,0.633 0.217,1.118 0.65,1.449 0.433,0.331 0.991,0.496 1.671,0.496 v 0.719 h -6.318 v -0.719 c 0.941,-0.148 1.64,-0.479 2.099,-0.998 0.462,-0.513 1.015,-1.603 1.665,-3.262 0.062,-0.16 0.316,-0.764 0.758,-1.824 l 6.178,-14.757 h 0.605 l 7.118,16.889 0.976,2.224 c 0.217,0.502 0.51,0.895 0.877,1.186 0.368,0.285 0.922,0.468 1.66,0.542 v 0.719 h -8.342 v -0.719 c 1.023,0 1.716,-0.08 2.078,-0.228 0.359,-0.154 0.539,-0.456 0.539,-0.901 0,-0.234 -0.24,-0.918 -0.719,-2.058 z m -0.291,-0.707 -3.748,-9.06 -3.752,9.06 z"
         id="path3826" />
      <path
         style="fill:#67686b"
         inkscape:connector-curvature="0"
         d="m 622.423,408.311 -0.154,6.255 h -18.052 v -0.719 h 0.628 c 0.912,0 1.539,-0.12 1.89,-0.348 0.351,-0.228 0.575,-0.587 0.675,-1.072 0.101,-0.485 0.148,-1.62 0.148,-3.398 v -10.423 c 0,-1.693 -0.048,-2.788 -0.148,-3.279 -0.1,-0.49 -0.307,-0.833 -0.627,-1.021 -0.318,-0.188 -1.018,-0.279 -2.092,-0.279 h -0.474 v -0.724 h 10.224 v 0.724 H 613.5 c -1.043,0 -1.727,0.085 -2.053,0.256 -0.324,0.171 -0.541,0.496 -0.649,0.964 -0.111,0.473 -0.165,1.591 -0.165,3.358 v 11.13 c 0,1.54 0.043,2.497 0.125,2.885 0.082,0.388 0.311,0.69 0.682,0.901 0.371,0.217 1.166,0.325 2.387,0.325 h 1.613 c 1.305,0 2.271,-0.114 2.904,-0.348 0.631,-0.228 1.232,-0.73 1.803,-1.5 0.566,-0.77 1.086,-2.001 1.557,-3.689 h 0.719 z"
         id="path3828" />
      <path
         style="fill:#67686b"
         inkscape:connector-curvature="0"
         d="m 659.481,408.311 -0.153,6.255 h -18.052 v -0.719 h 0.627 c 0.912,0 1.539,-0.12 1.891,-0.348 0.35,-0.228 0.575,-0.587 0.676,-1.072 0.1,-0.485 0.147,-1.62 0.147,-3.398 v -10.423 c 0,-1.693 -0.048,-2.788 -0.147,-3.279 -0.101,-0.49 -0.309,-0.833 -0.628,-1.021 -0.319,-0.188 -1.018,-0.279 -2.093,-0.279 h -0.473 v -0.724 h 10.223 v 0.724 h -0.94 c -1.044,0 -1.728,0.085 -2.053,0.256 -0.325,0.171 -0.542,0.496 -0.649,0.964 -0.111,0.473 -0.166,1.591 -0.166,3.358 v 11.13 c 0,1.54 0.043,2.497 0.125,2.885 0.084,0.388 0.312,0.69 0.682,0.901 0.371,0.217 1.166,0.325 2.387,0.325 h 1.613 c 1.307,0 2.272,-0.114 2.905,-0.348 0.63,-0.228 1.231,-0.73 1.802,-1.5 0.567,-0.77 1.086,-2.001 1.557,-3.689 h 0.719 z"
         id="path3830" />
      <path
         style="fill:#67686b"
         inkscape:connector-curvature="0"
         d="m 682.255,407.952 h 0.753 l -0.465,6.614 h -17.599 v -0.719 h 0.439 c 1.055,0 1.736,-0.142 2.044,-0.427 0.308,-0.28 0.505,-0.639 0.59,-1.072 0.083,-0.433 0.126,-1.54 0.126,-3.318 v -10.423 c 0,-1.625 -0.046,-2.691 -0.135,-3.199 -0.088,-0.513 -0.293,-0.873 -0.613,-1.078 -0.318,-0.2 -0.988,-0.302 -2.012,-0.302 v -0.724 h 15.207 l 0.486,5.303 h -0.721 c -0.334,-1.488 -0.744,-2.538 -1.231,-3.159 -0.485,-0.627 -1.063,-1.015 -1.733,-1.18 -0.667,-0.16 -1.744,-0.239 -3.228,-0.239 h -2.948 v 8.917 h 2.264 c 1.038,0 1.762,-0.085 2.179,-0.262 0.413,-0.183 0.687,-0.451 0.815,-0.81 0.131,-0.359 0.199,-1.066 0.199,-2.11 h 0.719 v 7.275 h -0.719 c 0,-1.18 -0.1,-1.973 -0.299,-2.372 -0.199,-0.405 -0.49,-0.667 -0.873,-0.787 -0.385,-0.12 -1.031,-0.182 -1.943,-0.182 h -2.342 v 5.035 c 0,2.52 0.16,4.002 0.485,4.447 0.322,0.445 1.194,0.667 2.614,0.667 h 1.582 c 1.115,0 2.035,-0.142 2.754,-0.427 0.722,-0.285 1.408,-0.878 2.062,-1.768 0.65,-0.895 1.167,-2.126 1.543,-3.7 z"
         id="path3832" />
      <path
         style="fill:#67686b"
         inkscape:connector-curvature="0"
         d="m 702.046,406.726 h -8.082 l -0.559,1.352 c -0.815,1.95 -1.223,3.227 -1.223,3.826 0,0.633 0.217,1.118 0.649,1.449 0.434,0.331 0.992,0.496 1.671,0.496 v 0.719 h -6.318 v -0.719 c 0.941,-0.148 1.64,-0.479 2.099,-0.998 0.462,-0.513 1.015,-1.603 1.665,-3.262 0.062,-0.16 0.316,-0.764 0.758,-1.824 l 6.179,-14.757 h 0.604 l 7.119,16.889 0.975,2.224 c 0.217,0.502 0.51,0.895 0.878,1.186 0.368,0.285 0.921,0.468 1.659,0.542 v 0.719 h -8.342 v -0.719 c 1.023,0 1.717,-0.08 2.078,-0.228 0.359,-0.154 0.539,-0.456 0.539,-0.901 0,-0.234 -0.24,-0.918 -0.719,-2.058 z m -0.291,-0.707 -3.748,-9.06 -3.752,9.06 z"
         id="path3834" />
      <path
         style="fill:#67686b"
         inkscape:connector-curvature="0"
         d="m 737.44,414.566 h -5.725 c -1.015,-0.713 -2.566,-2.572 -4.658,-5.583 -0.668,-0.963 -1.363,-1.881 -2.084,-2.765 -0.722,-0.884 -1.218,-1.425 -1.491,-1.614 -0.271,-0.194 -0.692,-0.291 -1.269,-0.291 h -0.847 v 4.715 c 0,1.676 0.04,2.771 0.116,3.29 0.08,0.513 0.289,0.901 0.628,1.151 0.339,0.251 0.991,0.376 1.952,0.376 h 1.021 v 0.719 h -10.178 v -0.719 h 0.689 c 0.91,0 1.539,-0.12 1.891,-0.348 0.35,-0.228 0.572,-0.587 0.664,-1.072 0.097,-0.485 0.143,-1.62 0.143,-3.398 v -10.423 c 0,-1.693 -0.046,-2.788 -0.143,-3.279 -0.092,-0.49 -0.303,-0.833 -0.627,-1.021 -0.322,-0.188 -1.023,-0.279 -2.099,-0.279 h -0.362 v -0.724 l 3.042,-0.154 c 2.026,-0.097 3.638,-0.143 4.829,-0.143 2.027,0 3.678,0.188 4.947,0.564 1.271,0.376 2.297,0.992 3.082,1.848 0.783,0.861 1.174,1.882 1.174,3.073 0,1.392 -0.51,2.577 -1.533,3.563 -1.027,0.981 -2.532,1.591 -4.516,1.831 0.886,0.428 2.32,1.979 4.295,4.641 1.608,2.167 2.875,3.581 3.795,4.254 0.918,0.667 2.008,1.021 3.262,1.066 v 0.722 z M 721.367,403.59 c 0.784,-0.023 1.593,-0.052 2.429,-0.091 0.838,-0.045 1.565,-0.16 2.182,-0.348 0.615,-0.188 1.114,-0.461 1.496,-0.821 0.382,-0.36 0.684,-0.833 0.9,-1.42 0.223,-0.587 0.331,-1.306 0.331,-2.167 0,-1.494 -0.373,-2.691 -1.12,-3.586 -0.747,-0.901 -2.375,-1.352 -4.884,-1.352 -0.388,0 -0.833,0.023 -1.334,0.063 z"
         id="path3836" />
      <path
         style="fill:#67686b"
         inkscape:connector-curvature="0"
         d="m 761.451,415.051 -15.038,-19.928 v 14.756 c 0,1.22 0.059,2.03 0.179,2.412 0.12,0.388 0.462,0.747 1.026,1.066 0.564,0.325 1.414,0.49 2.543,0.49 v 0.719 h -7.938 v -0.719 c 1.016,-0.074 1.791,-0.262 2.321,-0.559 0.536,-0.296 0.85,-0.622 0.949,-0.963 0.101,-0.348 0.151,-1.164 0.151,-2.446 v -11.272 c 0,-1.631 -0.077,-2.726 -0.229,-3.279 -0.15,-0.553 -0.393,-0.912 -0.721,-1.066 -0.331,-0.16 -1.063,-0.234 -2.204,-0.234 v -0.724 h 6.272 l 12.59,16.638 v -12.715 c 0,-0.941 -0.095,-1.603 -0.289,-1.979 -0.193,-0.376 -0.59,-0.673 -1.183,-0.896 -0.599,-0.216 -1.313,-0.325 -2.149,-0.325 v -0.724 h 7.715 v 0.724 c -0.898,0.068 -1.608,0.245 -2.124,0.513 -0.519,0.273 -0.847,0.599 -0.989,0.98 -0.14,0.382 -0.211,1.026 -0.211,1.938 v 17.59 h -0.671 z"
         id="path3838" />
      <path
         style="fill:#67686b"
         inkscape:connector-curvature="0"
         d="m 770.768,394.028 v -0.724 h 9.722 v 0.724 h -0.456 c -1.046,0 -1.73,0.085 -2.053,0.256 -0.325,0.171 -0.542,0.496 -0.653,0.964 -0.107,0.473 -0.162,1.591 -0.162,3.358 v 10.423 c 0,1.676 0.037,2.771 0.117,3.29 0.077,0.513 0.288,0.901 0.627,1.151 0.34,0.251 0.989,0.376 1.953,0.376 h 0.627 v 0.719 h -9.722 v -0.719 h 0.628 c 0.906,0 1.536,-0.12 1.887,-0.348 0.351,-0.228 0.573,-0.587 0.667,-1.072 0.095,-0.485 0.143,-1.62 0.143,-3.398 v -10.423 c 0,-1.693 -0.048,-2.788 -0.143,-3.279 -0.094,-0.49 -0.302,-0.833 -0.627,-1.021 -0.325,-0.188 -1.023,-0.279 -2.101,-0.279 h -0.454 z"
         id="path3840" />
      <path
         style="fill:#67686b"
         inkscape:connector-curvature="0"
         d="m 805.255,415.051 -15.038,-19.928 v 14.756 c 0,1.22 0.06,2.03 0.18,2.412 0.12,0.388 0.462,0.747 1.026,1.066 0.564,0.325 1.414,0.49 2.543,0.49 v 0.719 h -7.938 v -0.719 c 1.016,-0.074 1.791,-0.262 2.321,-0.559 0.536,-0.296 0.85,-0.622 0.949,-0.963 0.1,-0.348 0.151,-1.164 0.151,-2.446 v -11.272 c 0,-1.631 -0.077,-2.726 -0.229,-3.279 -0.15,-0.553 -0.393,-0.912 -0.721,-1.066 -0.331,-0.16 -1.064,-0.234 -2.204,-0.234 v -0.724 h 6.272 l 12.59,16.638 v -12.715 c 0,-0.941 -0.095,-1.603 -0.289,-1.979 -0.193,-0.376 -0.59,-0.673 -1.183,-0.896 -0.599,-0.216 -1.314,-0.325 -2.149,-0.325 v -0.724 h 7.715 v 0.724 c -0.898,0.068 -1.608,0.245 -2.125,0.513 -0.519,0.273 -0.846,0.599 -0.988,0.98 -0.141,0.382 -0.211,1.026 -0.211,1.938 v 17.59 h -0.672 z"
         id="path3842" />
      <path
         style="fill:#67686b"
         inkscape:connector-curvature="0"
         d="m 828.56,405.489 h 9.171 v 0.753 c -1.015,0 -1.702,0.103 -2.062,0.308 -0.361,0.2 -0.599,0.542 -0.713,1.015 -0.117,0.479 -0.174,1.63 -0.174,3.461 v 2.258 c -0.25,-0.045 -0.477,-0.062 -0.676,-0.062 -0.804,0 -1.858,0.245 -3.164,0.735 -1.779,0.667 -3.424,1.003 -4.941,1.003 -3.041,0 -5.57,-1.003 -7.588,-3.005 -2.02,-2.001 -3.025,-4.539 -3.025,-7.612 0,-3.039 0.961,-5.708 2.885,-7.994 1.922,-2.292 4.536,-3.438 7.84,-3.438 2.843,0 5.195,1.049 7.054,3.136 0.348,-0.729 0.564,-1.517 0.661,-2.366 h 0.753 v 7.104 h -0.753 c -0.305,-2.189 -1.131,-3.923 -2.482,-5.2 -1.354,-1.283 -2.996,-1.921 -4.927,-1.921 -1.995,0 -3.735,0.747 -5.218,2.229 -1.482,1.488 -2.223,4.128 -2.223,7.92 0,3.775 0.715,6.455 2.146,8.028 1.428,1.58 3.204,2.366 5.322,2.366 1.086,0 2.072,-0.222 2.959,-0.667 0.89,-0.445 1.494,-0.987 1.819,-1.625 0.322,-0.639 0.484,-1.448 0.484,-2.423 0,-1.141 -0.077,-1.904 -0.228,-2.287 -0.151,-0.382 -0.385,-0.639 -0.699,-0.77 -0.313,-0.131 -0.887,-0.194 -1.722,-0.194 h -0.501 v -0.752 z"
         id="path3844" />
    </g>
    <g
       transform="matrix(0.16660913,0,0,0.16660913,-44.949393,211.99406)"
       id="g3880">
      <path
         style="fill:#67686b"
         inkscape:connector-curvature="0"
         d="m 447.521,442.976 v 4.325 c 0,1.617 0.037,2.677 0.114,3.179 0.075,0.502 0.282,0.871 0.613,1.114 0.336,0.242 0.963,0.364 1.881,0.364 h 0.685 v 0.7 h -9.424 v -0.7 h 0.546 c 0.883,0 1.49,-0.11 1.83,-0.332 0.338,-0.225 0.555,-0.567 0.646,-1.042 0.09,-0.469 0.133,-1.562 0.133,-3.283 v -10.09 c 0,-1.64 -0.043,-2.692 -0.133,-3.173 -0.092,-0.474 -0.293,-0.799 -0.607,-0.982 -0.315,-0.182 -0.99,-0.275 -2.033,-0.275 h -0.382 v -0.695 l 2.582,-0.099 c 2.063,-0.077 3.669,-0.116 4.822,-0.116 2.124,0 3.762,0.166 4.91,0.502 1.147,0.337 2.088,0.927 2.822,1.776 0.733,0.851 1.1,1.926 1.1,3.222 0,1.126 -0.251,2.119 -0.752,2.98 -0.501,0.86 -1.22,1.512 -2.155,1.957 -0.936,0.447 -2.582,0.668 -4.938,0.668 z m 0,-0.756 h 1.472 c 1.184,0 2.142,-0.121 2.868,-0.357 0.729,-0.238 1.336,-0.74 1.821,-1.501 0.485,-0.762 0.729,-1.7 0.729,-2.813 0,-1.705 -0.419,-2.957 -1.253,-3.752 -0.835,-0.801 -2.187,-1.197 -4.06,-1.197 -0.688,0 -1.215,0.022 -1.577,0.061 z"
         id="path3848" />
      <path
         style="fill:#67686b"
         inkscape:connector-curvature="0"
         d="m 473.062,445.072 h -7.819 l -0.542,1.302 c -0.789,1.893 -1.185,3.129 -1.185,3.702 0,0.618 0.21,1.087 0.63,1.407 0.42,0.314 0.96,0.475 1.617,0.475 v 0.7 h -6.113 v -0.7 c 0.91,-0.139 1.586,-0.464 2.03,-0.961 0.447,-0.502 0.982,-1.555 1.612,-3.16 0.061,-0.149 0.306,-0.74 0.732,-1.76 l 5.978,-14.284 h 0.585 l 6.888,16.341 0.943,2.158 c 0.21,0.484 0.494,0.865 0.85,1.143 0.355,0.28 0.891,0.451 1.605,0.523 v 0.7 h -8.071 v -0.7 c 0.99,0 1.66,-0.072 2.012,-0.221 0.347,-0.144 0.521,-0.436 0.521,-0.872 0,-0.221 -0.231,-0.883 -0.695,-1.986 z m -0.282,-0.683 -3.627,-8.772 -3.631,8.772 z"
         id="path3850" />
      <path
         style="fill:#67686b"
         inkscape:connector-curvature="0"
         d="m 507.929,452.658 h -5.54 c -0.981,-0.69 -2.482,-2.488 -4.507,-5.401 -0.646,-0.933 -1.319,-1.826 -2.017,-2.682 -0.698,-0.854 -1.177,-1.373 -1.442,-1.561 -0.262,-0.188 -0.67,-0.281 -1.228,-0.281 h -0.819 v 4.567 c 0,1.617 0.039,2.677 0.112,3.179 0.078,0.502 0.28,0.871 0.607,1.114 0.328,0.242 0.96,0.364 1.889,0.364 h 0.989 v 0.7 h -9.848 v -0.7 h 0.667 c 0.881,0 1.489,-0.11 1.829,-0.332 0.338,-0.225 0.554,-0.567 0.643,-1.042 0.094,-0.469 0.138,-1.562 0.138,-3.283 v -10.09 c 0,-1.64 -0.044,-2.692 -0.138,-3.173 -0.089,-0.474 -0.293,-0.799 -0.606,-0.982 -0.312,-0.182 -0.99,-0.275 -2.031,-0.275 h -0.351 v -0.695 l 2.943,-0.154 c 1.962,-0.088 3.52,-0.138 4.674,-0.138 1.96,0 3.558,0.183 4.785,0.546 1.231,0.365 2.224,0.966 2.982,1.793 0.758,0.828 1.137,1.821 1.137,2.975 0,1.346 -0.494,2.493 -1.484,3.441 -0.994,0.95 -2.45,1.545 -4.369,1.777 0.857,0.414 2.245,1.908 4.156,4.49 1.557,2.092 2.781,3.465 3.672,4.11 0.888,0.646 1.941,0.993 3.156,1.032 v 0.701 z m -15.553,-10.62 c 0.759,-0.022 1.542,-0.056 2.351,-0.094 0.81,-0.039 1.514,-0.148 2.11,-0.331 0.595,-0.183 1.078,-0.447 1.448,-0.8 0.37,-0.348 0.661,-0.805 0.87,-1.374 0.216,-0.562 0.32,-1.263 0.32,-2.091 0,-1.445 -0.36,-2.604 -1.084,-3.476 -0.722,-0.872 -2.297,-1.302 -4.725,-1.302 -0.376,0 -0.806,0.017 -1.291,0.061 v 9.407 z"
         id="path3852" />
      <path
         style="fill:#67686b"
         inkscape:connector-curvature="0"
         d="m 510.968,437.028 h -0.697 l 0.104,-4.943 h 19.983 l 0.104,4.943 h -0.649 c -0.233,-1.356 -0.553,-2.334 -0.956,-2.935 -0.405,-0.602 -0.841,-0.972 -1.307,-1.109 -0.464,-0.132 -1.258,-0.204 -2.382,-0.204 h -3.307 v 14.521 c 0,1.606 0.038,2.665 0.113,3.173 0.077,0.502 0.28,0.877 0.614,1.12 0.335,0.242 0.96,0.364 1.882,0.364 h 1.001 v 0.7 h -10.27 v -0.7 h 1.06 c 0.883,0 1.489,-0.11 1.828,-0.332 0.34,-0.225 0.557,-0.567 0.654,-1.042 0.097,-0.469 0.144,-1.562 0.144,-3.283 V 432.78 h -3.051 c -1.325,0 -2.213,0.066 -2.671,0.193 -0.452,0.121 -0.88,0.508 -1.279,1.142 -0.399,0.641 -0.705,1.612 -0.918,2.913 z"
         id="path3854" />
      <path
         style="fill:#67686b"
         inkscape:connector-curvature="0"
         d="m 554.954,453.127 -14.55,-19.282 v 14.273 c 0,1.186 0.057,1.964 0.174,2.34 0.115,0.374 0.446,0.717 0.992,1.03 0.546,0.315 1.368,0.47 2.46,0.47 v 0.7 h -7.679 v -0.7 c 0.981,-0.072 1.732,-0.248 2.246,-0.535 0.518,-0.292 0.822,-0.602 0.918,-0.938 0.097,-0.331 0.146,-1.119 0.146,-2.366 v -10.907 c 0,-1.577 -0.073,-2.632 -0.221,-3.173 -0.146,-0.535 -0.38,-0.877 -0.697,-1.031 -0.319,-0.148 -1.029,-0.227 -2.132,-0.227 v -0.695 h 6.067 l 12.183,16.094 v -12.303 c 0,-0.91 -0.091,-1.545 -0.278,-1.909 -0.189,-0.364 -0.573,-0.656 -1.146,-0.866 -0.58,-0.215 -1.271,-0.32 -2.081,-0.32 v -0.695 h 7.465 v 0.695 c -0.868,0.072 -1.555,0.237 -2.054,0.503 -0.503,0.265 -0.82,0.579 -0.958,0.948 -0.135,0.369 -0.204,0.993 -0.204,1.87 v 17.025 h -0.651 z"
         id="path3856" />
      <path
         style="fill:#67686b"
         inkscape:connector-curvature="0"
         d="m 581.524,446.253 h 0.728 l -0.449,6.405 h -17.028 v -0.7 h 0.425 c 1.021,0 1.681,-0.139 1.978,-0.408 0.298,-0.275 0.489,-0.618 0.572,-1.037 0.079,-0.426 0.121,-1.49 0.121,-3.212 v -10.09 c 0,-1.567 -0.045,-2.599 -0.131,-3.096 -0.084,-0.495 -0.283,-0.837 -0.594,-1.036 -0.308,-0.199 -0.956,-0.299 -1.946,-0.299 v -0.695 h 14.714 l 0.471,5.126 h -0.697 c -0.323,-1.435 -0.719,-2.455 -1.191,-3.057 -0.469,-0.601 -1.029,-0.981 -1.677,-1.137 -0.646,-0.159 -1.688,-0.237 -3.123,-0.237 h -2.853 v 8.635 h 2.19 c 1.004,0 1.705,-0.088 2.107,-0.26 0.4,-0.17 0.664,-0.43 0.789,-0.777 0.127,-0.354 0.192,-1.032 0.192,-2.041 h 0.696 v 7.039 h -0.696 c 0,-1.147 -0.096,-1.908 -0.289,-2.301 -0.191,-0.392 -0.474,-0.64 -0.844,-0.756 -0.373,-0.121 -0.998,-0.177 -1.881,-0.177 h -2.266 v 4.872 c 0,2.434 0.154,3.867 0.47,4.297 0.311,0.432 1.155,0.646 2.53,0.646 h 1.53 c 1.078,0 1.969,-0.139 2.664,-0.414 0.698,-0.275 1.362,-0.844 1.994,-1.711 0.63,-0.864 1.13,-2.056 1.494,-3.579 z"
         id="path3858" />
      <path
         style="fill:#67686b"
         inkscape:connector-curvature="0"
         d="m 610.46,452.658 h -5.538 c -0.982,-0.69 -2.484,-2.488 -4.508,-5.401 -0.645,-0.933 -1.318,-1.826 -2.017,-2.681 -0.697,-0.854 -1.177,-1.374 -1.443,-1.562 -0.262,-0.188 -0.669,-0.281 -1.227,-0.281 h -0.819 v 4.567 c 0,1.617 0.039,2.677 0.112,3.179 0.077,0.502 0.28,0.871 0.608,1.114 0.328,0.242 0.96,0.364 1.889,0.364 h 0.988 v 0.7 h -9.849 v -0.7 h 0.667 c 0.882,0 1.49,-0.11 1.829,-0.332 0.34,-0.225 0.555,-0.567 0.643,-1.042 0.094,-0.469 0.139,-1.562 0.139,-3.283 v -10.09 c 0,-1.639 -0.045,-2.692 -0.139,-3.173 -0.088,-0.474 -0.293,-0.799 -0.605,-0.981 -0.312,-0.182 -0.99,-0.276 -2.03,-0.276 h -0.352 v -0.695 l 2.944,-0.154 c 1.961,-0.088 3.52,-0.137 4.672,-0.137 1.962,0 3.559,0.182 4.787,0.545 1.229,0.365 2.222,0.966 2.981,1.793 0.759,0.828 1.136,1.821 1.136,2.975 0,1.346 -0.493,2.493 -1.483,3.441 -0.994,0.95 -2.449,1.546 -4.368,1.777 0.857,0.414 2.245,1.908 4.156,4.49 1.556,2.092 2.78,3.465 3.67,4.11 0.889,0.646 1.943,0.993 3.156,1.032 v 0.701 z m -15.552,-10.62 c 0.759,-0.022 1.542,-0.055 2.351,-0.094 0.811,-0.039 1.515,-0.148 2.11,-0.331 0.595,-0.183 1.078,-0.447 1.448,-0.8 0.369,-0.348 0.661,-0.805 0.871,-1.374 0.215,-0.562 0.321,-1.263 0.321,-2.091 0,-1.445 -0.362,-2.604 -1.086,-3.476 -0.723,-0.872 -2.298,-1.302 -4.725,-1.302 -0.375,0 -0.807,0.017 -1.291,0.061 v 9.407 z"
         id="path3860" />
      <path
         style="fill:#67686b"
         inkscape:connector-curvature="0"
         d="m 616.971,452.442 v -6.613 h 0.758 c 0.861,4.319 2.897,6.477 6.113,6.477 1.447,0 2.568,-0.408 3.361,-1.236 0.797,-0.828 1.19,-1.754 1.19,-2.775 0,-1.031 -0.348,-1.897 -1.046,-2.598 -0.697,-0.689 -1.973,-1.43 -3.823,-2.219 -1.649,-0.706 -2.893,-1.329 -3.732,-1.858 -0.838,-0.53 -1.495,-1.22 -1.963,-2.069 -0.473,-0.85 -0.707,-1.754 -0.707,-2.72 0,-1.462 0.508,-2.687 1.525,-3.663 1.016,-0.977 2.304,-1.463 3.859,-1.463 0.872,0 1.69,0.145 2.46,0.426 0.767,0.281 1.557,0.871 2.367,1.76 0.463,-0.558 0.729,-1.158 0.789,-1.805 h 0.667 v 5.385 h -0.667 c -0.386,-1.561 -1.064,-2.791 -2.042,-3.69 -0.976,-0.899 -2.107,-1.347 -3.393,-1.347 -1.223,0 -2.121,0.332 -2.692,0.994 -0.571,0.662 -0.854,1.385 -0.854,2.174 0,0.953 0.355,1.754 1.073,2.41 0.705,0.668 1.986,1.418 3.837,2.24 1.773,0.783 3.062,1.418 3.864,1.897 0.806,0.479 1.448,1.147 1.934,1.997 0.486,0.85 0.729,1.832 0.729,2.941 0,1.76 -0.585,3.193 -1.761,4.297 -1.172,1.098 -2.738,1.65 -4.699,1.65 -2.257,0 -4.138,-0.861 -5.645,-2.594 -0.338,0.475 -0.582,1.143 -0.745,2.002 z"
         id="path3862" />
      <path
         style="fill:#67686b"
         inkscape:connector-curvature="0"
         d="M 654.494,442.341 H 643.77 v 4.96 c 0,1.617 0.041,2.677 0.121,3.179 0.079,0.502 0.287,0.871 0.614,1.114 0.328,0.242 0.952,0.364 1.874,0.364 h 0.529 v 0.7 h -9.269 v -0.7 h 0.529 c 0.883,0 1.49,-0.11 1.828,-0.332 0.34,-0.225 0.559,-0.567 0.654,-1.042 0.097,-0.469 0.144,-1.562 0.144,-3.283 v -10.09 c 0,-1.639 -0.047,-2.692 -0.144,-3.173 -0.096,-0.474 -0.298,-0.799 -0.606,-0.981 -0.31,-0.183 -0.985,-0.276 -2.023,-0.276 h -0.382 v -0.695 h 9.269 v 0.695 h -0.378 c -1.002,0 -1.658,0.084 -1.973,0.254 -0.314,0.166 -0.523,0.475 -0.63,0.933 -0.106,0.452 -0.158,1.534 -0.158,3.244 v 4.083 h 10.725 v -4.083 c 0,-1.639 -0.045,-2.692 -0.136,-3.173 -0.091,-0.474 -0.289,-0.799 -0.598,-0.981 -0.311,-0.183 -0.985,-0.276 -2.025,-0.276 h -0.546 v -0.695 h 9.359 v 0.695 h -0.305 c -1.011,0 -1.673,0.084 -1.987,0.254 -0.312,0.166 -0.521,0.475 -0.629,0.933 -0.105,0.452 -0.16,1.534 -0.16,3.244 v 10.09 c 0,1.617 0.039,2.677 0.116,3.179 0.073,0.502 0.28,0.871 0.612,1.114 0.337,0.242 0.962,0.364 1.88,0.364 h 0.473 v 0.7 h -9.359 v -0.7 h 0.712 c 0.869,0 1.473,-0.11 1.812,-0.332 0.338,-0.225 0.554,-0.567 0.645,-1.042 0.091,-0.469 0.136,-1.562 0.136,-3.283 z"
         id="path3864" />
      <path
         style="fill:#67686b"
         inkscape:connector-curvature="0"
         d="m 667.059,432.78 v -0.695 h 9.406 v 0.695 h -0.441 c -1.013,0 -1.675,0.084 -1.985,0.254 -0.315,0.166 -0.525,0.475 -0.634,0.933 -0.103,0.452 -0.156,1.534 -0.156,3.244 v 10.09 c 0,1.617 0.036,2.677 0.114,3.179 0.073,0.502 0.278,0.871 0.606,1.114 0.329,0.242 0.958,0.364 1.89,0.364 h 0.606 v 0.7 h -9.406 v -0.7 h 0.607 c 0.876,0 1.486,-0.11 1.826,-0.332 0.339,-0.225 0.554,-0.567 0.646,-1.042 0.091,-0.469 0.138,-1.562 0.138,-3.283 v -10.09 c 0,-1.639 -0.047,-2.692 -0.138,-3.173 -0.092,-0.474 -0.293,-0.799 -0.607,-0.981 -0.314,-0.182 -0.99,-0.276 -2.032,-0.276 h -0.44 z"
         id="path3866" />
      <path
         style="fill:#67686b"
         inkscape:connector-curvature="0"
         d="m 689.061,442.976 v 4.325 c 0,1.617 0.038,2.677 0.114,3.179 0.076,0.502 0.282,0.871 0.612,1.114 0.338,0.242 0.964,0.364 1.882,0.364 h 0.685 v 0.7 h -9.423 v -0.7 h 0.547 c 0.883,0 1.489,-0.11 1.828,-0.332 0.339,-0.225 0.556,-0.567 0.646,-1.042 0.091,-0.469 0.136,-1.562 0.136,-3.283 v -10.09 c 0,-1.639 -0.045,-2.692 -0.136,-3.173 -0.09,-0.474 -0.293,-0.799 -0.606,-0.981 -0.314,-0.183 -0.99,-0.276 -2.033,-0.276 h -0.381 v -0.695 l 2.583,-0.099 c 2.062,-0.077 3.667,-0.116 4.821,-0.116 2.123,0 3.762,0.166 4.909,0.502 1.148,0.337 2.089,0.928 2.823,1.776 0.732,0.851 1.1,1.926 1.1,3.222 0,1.126 -0.251,2.119 -0.752,2.98 -0.5,0.86 -1.221,1.512 -2.155,1.957 -0.936,0.447 -2.582,0.668 -4.938,0.668 z m 0,-0.756 h 1.473 c 1.184,0 2.14,-0.121 2.869,-0.357 0.729,-0.238 1.335,-0.74 1.821,-1.501 0.484,-0.762 0.727,-1.7 0.727,-2.813 0,-1.705 -0.418,-2.957 -1.252,-3.752 -0.836,-0.801 -2.188,-1.197 -4.06,-1.197 -0.688,0 -1.214,0.022 -1.578,0.061 z"
         id="path3868" />
      <path
         style="fill:#67686b"
         inkscape:connector-curvature="0"
         d="m 717.97,437.028 h -0.698 l 0.104,-4.943 h 19.982 l 0.105,4.943 h -0.651 c -0.231,-1.355 -0.552,-2.334 -0.955,-2.935 -0.405,-0.602 -0.841,-0.971 -1.308,-1.109 -0.464,-0.132 -1.257,-0.204 -2.38,-0.204 h -3.307 v 14.521 c 0,1.605 0.038,2.664 0.111,3.172 0.077,0.502 0.282,0.877 0.615,1.12 0.334,0.243 0.96,0.364 1.882,0.364 h 1 v 0.7 h -10.269 v -0.7 h 1.06 c 0.882,0 1.49,-0.11 1.828,-0.332 0.34,-0.225 0.558,-0.567 0.653,-1.042 0.097,-0.469 0.145,-1.562 0.145,-3.283 v -14.52 h -3.05 c -1.325,0 -2.214,0.066 -2.671,0.193 -0.454,0.121 -0.88,0.508 -1.28,1.142 -0.398,0.641 -0.704,1.612 -0.916,2.913 z"
         id="path3870" />
      <path
         style="fill:#67686b"
         inkscape:connector-curvature="0"
         d="m 765.417,452.658 h -5.539 c -0.981,-0.69 -2.482,-2.487 -4.507,-5.401 -0.646,-0.932 -1.319,-1.826 -2.017,-2.681 -0.698,-0.855 -1.178,-1.374 -1.442,-1.562 -0.262,-0.188 -0.67,-0.281 -1.228,-0.281 h -0.82 v 4.568 c 0,1.616 0.039,2.676 0.114,3.178 0.076,0.502 0.278,0.871 0.606,1.114 0.328,0.243 0.96,0.364 1.89,0.364 h 0.987 v 0.7 h -9.847 v -0.7 h 0.667 c 0.88,0 1.489,-0.11 1.829,-0.332 0.339,-0.225 0.553,-0.567 0.643,-1.042 0.095,-0.469 0.138,-1.562 0.138,-3.282 V 437.21 c 0,-1.639 -0.043,-2.692 -0.138,-3.173 -0.09,-0.474 -0.293,-0.799 -0.607,-0.981 -0.312,-0.183 -0.99,-0.276 -2.03,-0.276 h -0.351 v -0.695 l 2.944,-0.154 c 1.961,-0.088 3.519,-0.137 4.672,-0.137 1.961,0 3.559,0.182 4.787,0.546 1.229,0.364 2.223,0.965 2.981,1.793 0.758,0.827 1.136,1.82 1.136,2.974 0,1.346 -0.493,2.493 -1.482,3.441 -0.994,0.95 -2.45,1.546 -4.37,1.777 0.857,0.414 2.245,1.908 4.156,4.49 1.557,2.092 2.78,3.465 3.672,4.11 0.888,0.646 1.942,0.993 3.155,1.032 v 0.701 z m -15.553,-10.62 c 0.76,-0.021 1.543,-0.055 2.351,-0.094 0.811,-0.039 1.515,-0.148 2.11,-0.33 0.596,-0.184 1.079,-0.448 1.448,-0.801 0.37,-0.348 0.662,-0.805 0.872,-1.374 0.215,-0.562 0.32,-1.263 0.32,-2.091 0,-1.445 -0.362,-2.604 -1.084,-3.476 -0.723,-0.872 -2.299,-1.302 -4.726,-1.302 -0.376,0 -0.806,0.017 -1.292,0.061 v 9.407 z"
         id="path3872" />
      <path
         style="fill:#67686b"
         inkscape:connector-curvature="0"
         d="m 783.077,432.085 h 6.871 v 0.695 c -0.91,0.061 -1.59,0.266 -2.038,0.618 -0.45,0.349 -0.726,0.739 -0.828,1.176 -0.102,0.43 -0.151,1.28 -0.151,2.532 v 6.841 c 0,1.749 -0.068,3.051 -0.205,3.9 -0.138,0.85 -0.531,1.683 -1.183,2.505 -0.654,0.816 -1.569,1.467 -2.755,1.953 -1.182,0.484 -2.549,0.729 -4.094,0.729 -1.832,0 -3.383,-0.31 -4.651,-0.934 -1.269,-0.617 -2.176,-1.423 -2.716,-2.41 -0.541,-0.988 -0.812,-2.307 -0.812,-3.967 v -2.107 -6.405 c 0,-1.639 -0.047,-2.692 -0.145,-3.173 -0.095,-0.474 -0.298,-0.799 -0.606,-0.981 -0.31,-0.183 -0.985,-0.276 -2.026,-0.276 h -0.47 v -0.695 h 9.406 v 0.695 h -0.409 c -1.012,0 -1.674,0.084 -1.987,0.254 -0.316,0.166 -0.525,0.475 -0.63,0.933 -0.106,0.453 -0.16,1.534 -0.16,3.244 v 6.477 c 0,2.245 0.105,3.841 0.312,4.784 0.207,0.938 0.791,1.76 1.751,2.466 0.96,0.7 2.239,1.054 3.837,1.054 1.255,0 2.397,-0.237 3.424,-0.707 1.026,-0.469 1.789,-1.059 2.29,-1.76 0.501,-0.706 0.808,-1.429 0.918,-2.168 0.11,-0.744 0.165,-1.914 0.165,-3.514 v -7.013 c 0,-1.157 -0.063,-1.975 -0.195,-2.438 -0.133,-0.469 -0.414,-0.838 -0.85,-1.108 -0.437,-0.276 -1.122,-0.442 -2.063,-0.503 z"
         id="path3874" />
      <path
         style="fill:#67686b"
         inkscape:connector-curvature="0"
         d="m 797.067,452.442 v -6.613 h 0.76 c 0.859,4.319 2.896,6.477 6.112,6.477 1.448,0 2.568,-0.408 3.362,-1.236 0.794,-0.828 1.189,-1.754 1.189,-2.775 0,-1.031 -0.348,-1.897 -1.045,-2.598 -0.699,-0.689 -1.974,-1.43 -3.823,-2.219 -1.65,-0.706 -2.895,-1.329 -3.733,-1.858 -0.838,-0.53 -1.495,-1.22 -1.963,-2.069 -0.473,-0.85 -0.706,-1.754 -0.706,-2.72 0,-1.462 0.506,-2.687 1.524,-3.663 1.015,-0.977 2.304,-1.463 3.859,-1.463 0.87,0 1.691,0.145 2.46,0.426 0.768,0.281 1.556,0.871 2.367,1.76 0.464,-0.557 0.729,-1.158 0.788,-1.805 h 0.668 v 5.385 h -0.668 c -0.386,-1.561 -1.063,-2.791 -2.04,-3.69 -0.977,-0.899 -2.108,-1.346 -3.394,-1.346 -1.222,0 -2.121,0.331 -2.691,0.993 -0.571,0.662 -0.855,1.385 -0.855,2.174 0,0.953 0.355,1.754 1.072,2.41 0.707,0.668 1.986,1.418 3.837,2.24 1.774,0.783 3.063,1.418 3.865,1.897 0.807,0.479 1.449,1.147 1.934,1.997 0.485,0.85 0.729,1.832 0.729,2.941 0,1.76 -0.585,3.193 -1.76,4.297 -1.173,1.098 -2.74,1.65 -4.701,1.65 -2.256,0 -4.137,-0.861 -5.644,-2.594 -0.336,0.475 -0.582,1.143 -0.744,2.002 z"
         id="path3876" />
      <path
         style="fill:#67686b"
         inkscape:connector-curvature="0"
         d="m 818.253,437.028 h -0.697 l 0.104,-4.943 h 19.982 l 0.104,4.943 h -0.65 c -0.232,-1.355 -0.553,-2.334 -0.954,-2.935 -0.406,-0.602 -0.843,-0.971 -1.308,-1.109 -0.464,-0.132 -1.259,-0.204 -2.382,-0.204 h -3.308 v 14.521 c 0,1.605 0.039,2.664 0.114,3.172 0.077,0.502 0.281,0.877 0.615,1.12 0.333,0.243 0.959,0.364 1.881,0.364 h 1.002 v 0.7 h -10.271 v -0.7 h 1.06 c 0.883,0 1.489,-0.11 1.829,-0.332 0.338,-0.225 0.557,-0.567 0.653,-1.042 0.097,-0.469 0.144,-1.562 0.144,-3.282 V 432.78 h -3.052 c -1.323,0 -2.212,0.066 -2.669,0.193 -0.452,0.121 -0.881,0.508 -1.28,1.143 -0.399,0.64 -0.704,1.611 -0.917,2.912 z"
         id="path3878" />
    </g>
    <polygon
       transform="matrix(0.16660913,0,0,0.16660913,-44.949393,211.99406)"
       style="fill:#67686b"
       points="424.916,393.146 425.416,393.146 425.416,453.104 424.916,453.104 "
       id="polygon3882" />
  </g>
</svg>
